<svg width="840" height="120" viewBox="0 0 840 120" xmlns="http://www.w3.org/2000/svg">
    <defs>
        <linearGradient id="borderGrad" x1="0%" y1="0%" x2="100%" y2="100%">
            <stop offset="0%" stop-color="#3b82f6" stop-opacity="0.8"/>
            <stop offset="50%" stop-color="#1e293b" stop-opacity="0.4"/>
            <stop offset="100%" stop-color="#10b981" stop-opacity="0.8"/>
        </linearGradient>
        <radialGradient id="bgGlow" cx="50%" cy="50%" r="80%">
            <stop offset="0%" stop-color="#022c22" stop-opacity="0.4"/>
            <stop offset="100%" stop-color="#020617" stop-opacity="1"/>
        </radialGradient>
        <style>
            .font-sans { font-family: -apple-system, BlinkMacSystemFont, "Segoe UI", Roboto, Helvetica, Arial, sans-serif; }
            .font-mono { font-family: ui-monospace, SFMono-Regular, "SF Mono", Menlo, Consolas, "Liberation Mono", monospace; }
        </style>
    </defs>
    
    <rect width="840" height="120" fill="#020617"/>
    <rect x="20" y="10" width="800" height="100" rx="16" fill="url(#bgGlow)" stroke="url(#borderGrad)" stroke-width="1.5"/>
    
    <rect x="320" y="35" width="200" height="50" rx="25" fill="#0f172a" stroke="#1e293b" stroke-width="2"/>
    <circle cx="345" cy="60" r="12" fill="#f8fafc"/>
    <path d="M345 53c-3.86 0-7 3.14-7 7 0 3.09 2.01 5.71 4.79 6.64.35.07.48-.15.48-.34 0-.17-.01-.61-.01-1.2-1.95.42-2.36-.94-2.36-.94-.32-.81-.78-1.03-.78-1.03-.64-.44.05-.43.05-.43.71.05 1.08.73 1.08.73.63 1.08 1.65.77 2.05.59.06-.46.25-.77.45-.95-1.55-.18-3.19-.78-3.19-3.46 0-.76.27-1.39.72-1.88-.07-.18-.31-.89.07-1.85 0 0 .59-.19 1.93.72a6.72 6.72 0 0 1 1.76-.24c.6 0 1.2.08 1.76.24 1.34-.91 1.93-.72 1.93-.72.38.96.14 1.67.07 1.85.45.49.72 1.12.72 1.88 0 2.69-1.64 3.28-3.2 3.46.26.22.49.66.49 1.33 0 .96-.01 1.74-.01 1.98 0 .19.13.41.49.34C349.99 62.71 352 60.09 352 57c0-3.86-3.14-7-7-7z" fill="#0f172a"/>
    <text x="365" y="55" class="font-sans" font-size="11" font-weight="600" fill="#94a3b8">GitHub</text>
    <text x="365" y="70" class="font-sans" font-size="14" font-weight="800" fill="#f8fafc">@atul-kumar-choudhary</text>
    
    <text x="790" y="95" class="font-mono" font-size="10" fill="#334155" text-anchor="end">custom generated</text>
</svg>